<?xml version="1.0" standalone="no"?>
<!DOCTYPE svg PUBLIC "-//W3C//DTD SVG 20010904//EN"
 "http://www.w3.org/TR/2001/REC-SVG-20010904/DTD/svg10.dtd">
<svg version="1.0" xmlns="http://www.w3.org/2000/svg"
 width="586.000000pt" height="236.000000pt" viewBox="0 0 586.000000 236.000000"
 preserveAspectRatio="xMidYMid meet">

<g transform="translate(0.000000,236.000000) scale(0.100000,-0.100000)"
fill="#000000" stroke="none">
<path d="M4297 1730 c-76 -13 -172 -64 -227 -120 -203 -202 -145 -554 110
-678 362 -176 742 192 575 555 -79 174 -271 276 -458 243z m103 -161 c13 -28
27 -52 32 -55 4 -3 22 3 39 12 l32 16 -6 -34 c-4 -18 -9 -53 -13 -78 l-6 -45
27 33 c30 37 45 41 45 12 0 -27 18 -33 68 -21 23 5 42 8 42 7 0 0 -7 -26 -15
-56 -14 -53 -10 -69 18 -70 20 0 0 -25 -63 -77 -68 -57 -70 -59 -64 -96 4 -28
3 -36 -8 -33 -7 3 -42 7 -77 11 l-63 6 7 -50 7 -51 -32 0 -32 0 7 51 7 51 -58
-7 c-33 -4 -67 -9 -77 -12 -15 -4 -17 1 -12 34 6 37 4 39 -65 96 -38 33 -70
63 -70 67 0 5 9 12 20 15 24 8 24 7 6 67 -8 25 -12 48 -10 51 3 3 21 1 41 -5
43 -12 63 -5 63 22 0 29 15 25 48 -15 l29 -36 -13 68 c-19 97 -19 96 16 78 17
-9 34 -14 38 -11 5 3 19 27 32 55 13 28 26 51 30 51 4 0 17 -23 30 -51z"/>
</g>
</svg>
